<svg xmlns="http://www.w3.org/2000/svg" width="64" height="64" viewBox="0 0 64 64" fill="none">
  <rect width="64" height="64" rx="14" fill="#1F5C2E"/>
  <g stroke="#F9F6F0" stroke-width="4" stroke-linecap="round" stroke-linejoin="round">
    <path d="M18.5 52h27"/>
    <path d="M26.5 52c14.8-6.7 2.2-17.2 8-27"/>
    <path d="M25.2 31.7c3.1 2.2 5 6.1 6.2 10.1-5.4 1.1-9.5 1.1-12.9-.9-3.3-1.8-6.1-5.1-8.1-11.5 7.5-1.4 11.9.1 14.8 2.3z"/>
    <path d="M37.7 22.5c-2.1 3.1-3 6.8-3 11 5.1-.3 8.8-1.7 11.6-4.1 2.8-2.7 4.3-6.3 4.6-12.4-7.3.2-10.8 2.8-13.2 5.5z"/>
  </g>
</svg>
